<svg width="630" height="510" viewBox="0 0 630 510" fill="none" xmlns="http://www.w3.org/2000/svg">
<path d="M67.615 510.002C34.1331 467.526 12.152 417.144 3.78869 363.709C-4.57461 310.273 0.96164 255.585 19.8643 204.91C38.7669 154.235 70.399 109.28 111.714 74.3761C153.03 39.4718 202.636 15.7934 255.757 5.62138C308.878 -4.55067 363.723 -0.873737 415.01 16.2981C466.298 33.4699 512.3 63.5581 548.586 103.665C584.872 143.772 610.221 192.546 622.19 245.291C634.159 298.036 632.346 352.974 616.924 404.815L545.562 383.586C557.338 343.999 558.723 302.046 549.583 261.768C540.443 221.49 521.086 184.243 493.376 153.616C465.666 122.989 430.537 100.012 391.372 86.8992C352.207 73.7861 310.325 70.9782 269.76 78.746C229.195 86.5138 191.313 104.596 159.763 131.25C128.213 157.904 104.057 192.233 89.6224 230.931C75.1876 269.628 70.9599 311.391 77.3464 352.196C83.733 393.001 100.519 431.475 126.087 463.911L67.615 510.002Z" fill="#D71C4C"/>
</svg>
